# xmcd CD database file
#
# Track frame offsets:
#	150
#	13848
#	25752
#	41421
#	59777
#	79380
#	94651
#	107317
#	128178
#	140863
#	161563
#	173226
#	188885
#	201639
#	215987
#	230557
#	240810
#
# Disc length: 3362 seconds
#
# Revision: 0
# Processed by: cddbd v1.5.2PL0 Copyright (c) Steve Scherf et al.
# Submitted via: CDex 1.51
#
DISCID=f60d2011
DTITLE=Beth McDonald - Home
DYEAR=2009
DGENRE=Jazz
TTITLE0=Why don't you do right
TTITLE1=Sway
TTITLE2=Home
TTITLE3=I ain't got nothing but the blues
TTITLE4=Don't be a baby, baby
TTITLE5=I've got a crush on you
TTITLE6=He's a tramp
TTITLE7=Cry me a river
TTITLE8=Would you dare
TTITLE9=Besame Mucho
TTITLE10=It would be so easy
TTITLE11=Fever
TTITLE12=Goody Goody
TTITLE13=Second guessing
TTITLE14=Temptation
TTITLE15=Waitin' for the train to come in
TTITLE16=Don't ever leave me
EXTD=YEAR: 2009
EXTT0=
EXTT1=
EXTT2=
EXTT3=
EXTT4=
EXTT5=
EXTT6=
EXTT7=
EXTT8=
EXTT9=
EXTT10=
EXTT11=
EXTT12=
EXTT13=
EXTT14=
EXTT15=
EXTT16=
PLAYORDER=
